<?xml version="1.0" encoding="UTF-8"?>
<svg id="_レイヤー_2" data-name="レイヤー 2" xmlns="http://www.w3.org/2000/svg" viewBox="0 0 101.16 55.38">
  <defs>
    <style>
      .cls-1 {
        fill: #0081c9;
      }

      .cls-2 {
        fill: #00a53c;
      }

      .cls-3 {
        fill: #fff;
      }

      .cls-4 {
        fill: #595757;
      }
    </style>
  </defs>
  <g id="Logo_Regular" data-name="Logo Regular">
    <g>
      <g>
        <path class="cls-2" d="M32.33,55.03v-7.48c0-.94-.02-1.4-.14-1.88-.24-1.07-1.11-1.71-2.29-1.71-1.98,0-3.16,1.42-3.16,3.81v7.26h-2.64v-7.48c0-2.56-.68-3.59-2.36-3.59-1.89,0-3.16,1.4-3.16,3.51v7.56h-2.64v-12.98h2.57v1.58c1.18-1.4,2.27-1.93,3.9-1.93s2.95.75,3.73,2.21c1.09-1.47,2.53-2.21,4.37-2.21,1.72,0,3.26.79,3.9,2.02.47.92.59,1.67.59,3.64v7.67h-2.64Z"/>
        <path class="cls-4" d="M47.57,55.03v-1.58c-1.16,1.36-2.43,1.93-4.23,1.93s-3.33-.83-3.99-2.1c-.5-.92-.61-1.71-.61-3.92v-7.3h2.64v7.34c0,1.75.17,2.48.66,3,.45.48,1.2.75,2.05.75,1.18,0,2.24-.55,2.86-1.47.4-.61.54-1.18.54-2.28v-7.34h2.64v12.98h-2.57Z"/>
        <path class="cls-2" d="M57.52,55.38c-1.65,0-3.31-.39-4.63-1.1l.87-2.15c1.3.68,2.5.99,3.9.99,1.84,0,2.98-.68,2.98-1.78,0-.96-.61-1.38-2.72-1.95-1.42-.37-2.2-.68-2.86-1.1-.94-.57-1.49-1.58-1.49-2.74,0-2.28,2.05-3.86,5.01-3.86,1.3,0,2.46.26,3.85.86l-.69,2.24c-1.06-.57-2.05-.83-3.09-.83-1.49,0-2.43.61-2.43,1.58,0,.57.28,1.01.8,1.27.4.2.5.22,2.48.81,2.72.79,3.78,1.84,3.78,3.73,0,2.48-2.24,4.03-5.76,4.03Z"/>
        <g>
          <path class="cls-4" d="M68.42,42.21c-.69.42-1.4.59-1.88.48v2.41c.21-.22.47-.43.77-.62.69-.42,1.4-.59,1.88-.48v-2.41c-.21.22-.47.43-.77.62Z"/>
          <path class="cls-4" d="M68.42,46.28c-.69.42-1.4.59-1.88.48v8.29h2.64v-9.39c-.21.22-.47.43-.77.62Z"/>
          <path class="cls-4" d="M67.32,40.42c.69-.42,1.4-.59,1.88-.48v-1.92h-2.64v3.02c.21-.22.47-.43.77-.62Z"/>
        </g>
        <path class="cls-2" d="M79.87,55.38c-4.51,0-7.34-2.61-7.34-6.75s2.97-6.93,7.2-6.93c1.61,0,2.98.37,4.3,1.14l-.69,2.21c-1.04-.75-2.1-1.1-3.45-1.1-2.86,0-4.72,1.8-4.72,4.58s1.82,4.58,4.79,4.58c1.46,0,2.72-.35,4.06-1.14v2.5c-1.25.61-2.57.9-4.16.9Z"/>
      </g>
      <path class="cls-3" d="M91.97,6.19c-1.13-3.51-4.42-6.05-8.31-6.05s-7.18,2.54-8.31,6.05l-2.89,8.67V.6h-15.4c-2.77,0-5.29,1.1-7.14,2.89V.6h-15.87c-2.94,0-5.6,1.24-7.47,3.22V.6h-14.93C5.23.61.02,5.83.02,12.27c0,3.06,1.18,5.85,3.11,7.93H0v13.53h14.93c4.23,0,7.93-2.26,9.97-5.63,1.69,3.34,5.16,5.63,9.16,5.63h15.87v-2.89c1.85,1.79,4.36,2.89,7.14,2.89h44.09l-9.19-27.54Z"/>
      <g>
        <g>
          <path class="cls-1" d="M14.93,22.54H2.33v3.97h12.6c2.45,0,4.43-1.98,4.43-4.43s-1.98-4.43-4.43-4.43h-3.27c-2.96,0-5.37-2.4-5.37-5.37s2.4-5.37,5.37-5.37h12.6v-3.97h-12.6C6.51,2.94,2.33,7.11,2.33,12.27s4.18,9.33,9.33,9.33h3.27c.26,0,.47.21.47.47s-.21.47-.47.47Z"/>
          <path class="cls-1" d="M11.67,11.8h12.6v-3.97h-12.6c-2.45,0-4.43,1.98-4.43,4.43s1.99,4.43,4.43,4.43h3.27c2.96,0,5.37,2.4,5.37,5.37s-2.4,5.37-5.37,5.37H2.33v3.97h12.6c5.15,0,9.33-4.18,9.33-9.33s-4.18-9.33-9.33-9.33h-3.27c-.26,0-.47-.21-.47-.47s.21-.47.47-.47Z"/>
        </g>
        <g>
          <path class="cls-1" d="M57.07,7.84c-1.67,0-3.03,1.36-3.03,3.03v12.6c0,1.67,1.36,3.03,3.03,3.03h8.17v-8.87h-6.3v3.97h2.33v.93h-2.33c-.52,0-.93-.42-.93-.93v-8.87c0-.52.42-.93.93-.93h11.2v-3.97h-13.07Z"/>
          <path class="cls-1" d="M81.9,26.5h9.21l-6.24-18.61c-.16-.51-.64-.87-1.2-.87s-1.02.35-1.19.85l-8.11,23.54h4.68l2.85-8.36v3.46ZM83.6,18.05l1.35,4.02h-2.72l1.37-4.02Z"/>
          <path class="cls-1" d="M89.77,7.1c-.77-2.67-3.23-4.63-6.14-4.63s-5.32,1.91-6.12,4.54l-7.37,21.61v-15.88h-11.2v3.97h7.23v10.73h-9.1c-2.19,0-3.97-1.78-3.97-3.97v-12.61c0-2.19,1.78-3.96,3.97-3.96h13.07v-3.97h-13.07c-4.38,0-7.93,3.55-7.93,7.93v12.6c0,4.38,3.55,7.93,7.93,7.93h16.31l8.2-23.81c.29-.87,1.11-1.51,2.08-1.51s1.81.64,2.09,1.53l6.65,19.83h-10.51v3.97h16.03l-8.15-24.3Z"/>
        </g>
        <g>
          <path class="cls-1" d="M34.06,27.43c-2.19,0-3.97-1.78-3.97-3.97v-12.61c0-2.19,1.78-3.96,3.97-3.96h13.53v-3.97h-13.53c-4.38,0-7.93,3.55-7.93,7.93v12.6c0,4.38,3.55,7.93,7.93,7.93h13.53v-3.97h-13.53Z"/>
          <path class="cls-1" d="M35,21.6h9.8v-3.97h-13.77v5.83c0,1.67,1.36,3.03,3.03,3.03h13.53v-3.97h-11.67c-.51,0-.93-.42-.93-.93Z"/>
          <path class="cls-1" d="M44.8,12.74h-9.8c0-.52.42-.93.93-.93h11.67v-3.97h-13.53c-1.67,0-3.03,1.36-3.03,3.03v5.84h13.77v-3.97Z"/>
        </g>
      </g>
      <g>
        <path d="M95.59,6.22c.83,0,1.61-.32,2.2-.91s.91-1.37.91-2.2-.33-1.61-.91-2.2c-.59-.59-1.37-.91-2.2-.91-1.71,0-3.11,1.4-3.11,3.11,0,.83.32,1.61.91,2.2.59.59,1.37.91,2.2.91ZM92.91,3.11c0-.71.28-1.39.78-1.89.5-.5,1.18-.78,1.89-.78s1.39.28,1.89.78c.5.51.78,1.18.78,1.89,0,1.48-1.2,2.68-2.67,2.68-.71,0-1.39-.28-1.89-.78-.51-.51-.78-1.18-.78-1.89Z"/>
        <path d="M94.79,3.37v1.46h-.45V1.39h1.28c.48,0,.76,0,1.03.21.25.19.36.48.36.8,0,.81-.65.92-.82.95l.97,1.49h-.55l-.94-1.46h-.89ZM94.79,2.99h.91c.15,0,.28,0,.42-.03.32-.08.43-.31.43-.56,0-.09-.01-.32-.21-.48-.18-.15-.41-.15-.67-.15h-.89v1.22Z"/>
      </g>
    </g>
  </g>
</svg>